<?xml version="1.0" standalone="no"?>
<!DOCTYPE svg PUBLIC "-//W3C//DTD SVG 20010904//EN"
 "http://www.w3.org/TR/2001/REC-SVG-20010904/DTD/svg10.dtd">
<svg version="1.0" xmlns="http://www.w3.org/2000/svg"
 width="736.000000pt" height="1145.000000pt" viewBox="0 0 736.000000 1145.000000"
 preserveAspectRatio="xMidYMid meet">

<g transform="translate(0.000000,1145.000000) scale(0.100000,-0.100000)"
fill="#000000" stroke="none">
<path d="M1230 11406 c140 -32 235 -129 275 -283 8 -31 15 -72 15 -89 0 -26
-5 -33 -27 -38 -16 -4 -51 -23 -80 -42 -90 -62 -125 -169 -89 -272 l15 -40
-37 -15 c-83 -32 -161 -30 -218 8 l-26 17 20 21 c12 12 33 49 48 81 64 140 12
368 -117 523 -41 48 -47 52 -89 52 l-45 0 31 -13 c76 -33 151 -130 186 -239
28 -87 29 -234 1 -297 -46 -103 -125 -155 -224 -148 -107 8 -176 80 -210 222
-17 71 -17 71 -24 34 -16 -80 41 -205 114 -253 72 -48 158 -53 248 -14 37 16
43 16 54 3 16 -20 66 -46 104 -54 l30 -6 -1 -75 c-2 -133 -69 -229 -207 -295
-72 -35 -72 -35 -27 -29 101 14 189 77 238 170 20 40 27 68 30 140 l4 90 70
23 69 22 43 -35 c64 -52 130 -78 211 -81 63 -3 66 -2 35 7 -19 6 -63 20 -96
31 -104 32 -179 95 -204 172 -26 80 29 199 111 242 115 59 346 0 463 -119 154
-156 178 -372 60 -548 -51 -77 -105 -128 -206 -194 l-68 -45 0 -108 c0 -108
15 -352 26 -428 l6 -41 -54 -17 c-108 -35 -209 -98 -288 -176 -87 -88 -130
-156 -178 -283 -69 -184 -108 -426 -120 -744 l-7 -178 -95 3 c-289 9 -570 95
-690 212 -82 80 -89 105 -91 310 -1 138 -3 165 -10 125 -5 -27 -15 -73 -21
-102 -16 -76 -4 -196 28 -260 84 -173 376 -296 759 -320 l120 -8 6 -270 c4
-148 10 -301 14 -339 l7 -69 -159 6 c-252 9 -422 46 -589 127 -101 49 -190
118 -236 183 -12 17 -32 58 -45 91 l-22 61 6 -45 c9 -64 54 -148 108 -200 26
-25 56 -63 66 -85 14 -31 19 -35 19 -17 0 12 2 22 5 22 3 0 37 -16 76 -35 162
-82 331 -120 598 -134 89 -5 165 -12 168 -15 4 -4 9 -46 11 -95 4 -81 2 -92
-22 -133 -63 -108 -85 -314 -46 -439 42 -137 241 -391 544 -695 167 -166 463
-429 484 -429 3 0 11 26 18 57 28 120 92 211 180 254 46 22 64 26 116 22 55
-4 64 -8 89 -38 66 -79 73 -167 30 -375 -63 -300 -104 -445 -271 -945 -137
-407 -208 -664 -235 -845 -19 -129 -22 -408 -5 -523 59 -392 224 -698 483
-893 45 -34 82 -64 82 -67 0 -12 -84 -30 -166 -37 -47 -4 -134 -2 -199 4 -414
41 -750 218 -978 516 -20 26 -19 22 5 -25 15 -30 62 -90 104 -133 41 -43 72
-80 68 -82 -14 -9 -171 16 -255 41 -185 53 -351 152 -494 293 -161 159 -246
325 -285 558 -11 67 -13 72 -14 34 -1 -53 15 -148 36 -211 28 -82 123 -264
159 -305 82 -91 131 -142 165 -170 71 -59 82 -67 135 -101 79 -51 90 -80 118
-324 7 -67 22 -137 35 -169 56 -137 111 -239 153 -282 63 -64 78 -89 78 -124
0 -36 -29 -65 -65 -65 -14 0 -25 -4 -25 -10 0 -5 -9 -10 -20 -10 -11 0 -20 -3
-20 -7 0 -5 -17 -19 -37 -33 -56 -38 -99 -84 -151 -163 -70 -107 -77 -124
-102 -257 -11 -58 -11 -369 0 -435 5 -27 14 -84 20 -125 6 -41 23 -115 36
-165 33 -123 56 -228 63 -300 l6 -60 2728 -3 2727 -2 -5 42 c-9 63 -44 248
-55 288 -5 19 -24 85 -41 145 -17 61 -37 133 -45 160 -7 28 -21 75 -30 105 -9
30 -25 98 -36 150 -18 82 -19 104 -10 162 25 144 82 235 283 449 303 323 431
501 583 809 42 85 81 163 86 172 18 32 88 222 119 323 93 305 127 646 76 785
-8 24 -22 94 -31 155 -8 60 -21 130 -29 154 -17 52 -19 124 -4 152 16 31 48
189 59 293 27 258 -54 581 -204 811 -70 107 -97 145 -133 183 -7 7 -34 41 -59
75 -26 34 -66 82 -90 107 -47 50 -150 175 -174 211 -8 12 -29 39 -46 58 -17
20 -53 70 -79 111 -26 41 -62 98 -80 125 -18 28 -70 122 -115 210 -147 284
-263 485 -311 536 -8 8 -41 50 -75 94 -96 126 -348 387 -410 425 -13 8 -24 18
-24 22 0 5 -7 8 -15 8 -8 0 -15 4 -15 8 0 4 -12 15 -27 24 -16 9 -51 38 -80
65 -40 38 -57 63 -78 121 -15 40 -39 87 -54 105 -14 18 -30 38 -36 45 -13 16
-43 47 -89 91 -20 19 -36 43 -36 55 -3 244 -57 748 -100 931 -5 22 -19 81 -30
130 -32 138 -131 431 -170 503 -5 9 -28 58 -51 107 -24 50 -46 92 -49 95 -4 3
-20 28 -35 55 -32 56 -83 133 -102 153 -7 7 -13 17 -13 22 0 11 -140 150 -151
150 -5 0 -9 3 -9 8 -1 12 -67 82 -79 82 -6 0 -11 5 -11 10 0 6 -5 10 -11 10
-11 0 -82 50 -87 63 -2 4 -10 7 -18 7 -8 0 -14 5 -14 10 0 6 -9 10 -20 10 -11
0 -20 5 -20 10 0 6 -9 10 -19 10 -11 0 -21 3 -23 8 -4 10 -67 42 -84 42 -8 0
-14 5 -14 10 0 6 -7 10 -15 10 -8 0 -23 4 -33 9 -9 5 -30 14 -47 21 -16 6 -43
18 -58 26 -16 8 -40 14 -53 14 -13 0 -24 5 -24 10 0 6 -24 10 -53 10 -29 0
-57 4 -63 9 -15 16 -138 23 -389 23 -245 0 -353 -7 -369 -23 -6 -5 -29 -9 -52
-9 -24 0 -46 -4 -49 -10 -3 -5 -16 -10 -29 -10 -13 0 -44 -11 -70 -25 -26 -14
-56 -25 -66 -25 -10 0 -22 -4 -25 -10 -3 -5 -17 -10 -31 -10 -13 0 -24 -4 -24
-10 0 -5 -7 -10 -15 -10 -9 0 -32 -10 -53 -23 -20 -13 -52 -30 -69 -38 -18 -8
-33 -17 -33 -21 0 -5 -5 -8 -10 -8 -6 0 -23 -13 -39 -29 -15 -16 -45 -37 -65
-46 -21 -10 -54 -38 -74 -63 -20 -24 -51 -61 -69 -81 -17 -19 -30 -38 -28 -40
3 -2 32 7 65 19 33 12 64 20 67 16 16 -16 -29 -77 -81 -110 -57 -36 -71 -55
-105 -147 -28 -72 -26 -74 8 -14 123 214 410 243 556 57 54 -68 74 -123 82
-217 l6 -71 -125 4 c-71 3 -147 -1 -178 -7 -112 -23 -218 -91 -257 -164 -14
-27 -16 -28 -33 -12 -10 9 -33 44 -51 78 -26 50 -33 76 -39 146 l-6 86 -12
-42 c-7 -23 -16 -45 -21 -47 -8 -6 26 -122 49 -167 7 -13 27 -42 45 -64 29
-36 33 -48 37 -120 7 -122 42 -173 155 -227 87 -41 183 -55 284 -40 86 12 207
59 254 97 37 30 23 32 -34 4 -104 -50 -284 -78 -391 -60 -144 23 -230 100
-238 211 -15 213 244 345 553 281 54 -11 101 -19 103 -17 2 2 -10 12 -27 22
-17 10 -31 22 -32 26 0 4 0 35 0 68 0 33 0 64 0 69 1 13 58 31 98 31 18 0 49
-7 68 -14 32 -14 35 -19 35 -55 0 -152 89 -304 215 -368 108 -55 194 -65 296
-33 155 48 256 184 277 371 l7 63 75 43 c41 24 80 43 87 43 8 0 13 -21 15 -56
4 -74 17 -83 95 -66 75 15 168 62 216 107 l37 36 -6 68 c-8 85 6 130 52 171
29 25 43 30 85 30 88 0 141 -51 141 -134 0 -69 -43 -130 -117 -169 l-30 -16
33 -1 c66 0 115 41 142 120 l17 50 35 -52 c266 -402 412 -934 463 -1690 18
-272 15 -293 -53 -438 -233 -496 -772 -1034 -1377 -1375 -208 -117 -381 -193
-672 -293 -196 -68 -304 -138 -350 -226 l-15 -30 -18 48 c-37 95 -95 152 -234
232 -453 257 -805 545 -1018 830 -112 151 -128 195 -144 388 -41 501 -38 1136
6 1435 46 312 116 479 264 627 90 89 193 148 317 180 l66 17 -25 22 c-23 20
-26 32 -33 131 -10 142 -11 406 -1 420 4 5 43 35 86 64 92 64 167 149 210 240
29 60 31 73 31 171 l0 106 -62 124 c-61 121 -63 125 -52 169 14 58 5 200 -16
268 -22 71 -121 172 -167 172 -7 0 1 -9 17 -19 47 -29 92 -82 116 -136 18 -39
23 -69 23 -140 1 -49 -3 -107 -7 -127 l-8 -37 -60 39 c-76 49 -154 79 -240 93
l-66 10 -17 79 c-10 43 -33 109 -52 146 -32 62 -34 67 -18 79 16 12 15 13 -8
13 -14 0 -54 15 -89 33 -84 43 -128 57 -170 56 -29 -1 -26 -3 21 -13z m1701
-1411 c85 -8 255 -29 379 -46 314 -45 536 -42 663 7 16 6 14 -2 -11 -52 -16
-32 -39 -89 -51 -126 l-22 -68 -101 -55 c-56 -30 -102 -54 -102 -53 -18 51
-78 147 -113 178 -88 82 -229 128 -337 110 -131 -21 -251 -123 -297 -253 -10
-28 -17 -36 -29 -31 -8 4 -40 14 -71 22 -49 14 -60 14 -101 1 l-45 -15 -28 57
c-34 72 -115 151 -192 187 -49 22 -72 26 -150 27 -51 0 -93 1 -93 3 0 2 11 23
25 47 l26 43 82 11 c45 6 93 12 107 14 64 10 322 6 461 -8z m528 -169 c162
-83 243 -284 179 -443 -58 -144 -191 -234 -344 -236 -128 -1 -244 76 -307 202
-28 58 -32 75 -32 151 0 71 4 94 26 141 47 99 128 171 232 205 67 22 181 13
246 -20z m1684 -2073 c46 -36 67 -64 109 -143 27 -53 33 -76 33 -126 0 -53 -7
-74 -58 -179 -64 -132 -152 -272 -258 -411 -68 -89 -73 -93 -164 -137 -124
-60 -204 -115 -293 -201 -122 -117 -206 -249 -282 -439 -21 -54 -32 -65 -134
-144 -123 -95 -318 -225 -441 -295 -170 -97 -430 -216 -443 -204 -3 3 -20 44
-37 90 -61 164 -137 256 -239 295 l-51 19 30 11 c17 7 62 23 100 37 297 108
445 174 640 287 501 288 988 739 1244 1150 54 88 141 265 172 351 13 36 26 66
30 66 3 0 22 -12 42 -27z m302 -395 c153 -114 378 -342 502 -508 135 -182 186
-265 325 -533 166 -321 228 -413 487 -722 176 -211 270 -335 345 -459 135
-223 195 -456 183 -711 -21 -440 -241 -830 -562 -996 -35 -19 -67 -31 -70 -27
-4 4 11 37 34 75 42 71 95 192 88 200 -3 2 -30 -42 -62 -97 -211 -374 -614
-685 -1086 -840 -98 -32 -298 -84 -304 -78 -2 2 19 36 46 77 54 79 58 110 7
45 -88 -110 -235 -227 -375 -298 -62 -31 -180 -76 -199 -76 -18 0 -3 31 136
270 59 102 173 304 253 450 l146 265 80 12 c44 6 101 21 126 33 87 42 167 161
182 270 9 67 13 75 58 105 116 78 136 262 46 450 l-28 60 45 90 c50 101 119
275 150 380 11 39 30 103 42 143 21 72 21 72 79 102 62 31 113 84 131 134 10
29 6 27 -47 -25 -61 -58 -111 -94 -120 -85 -3 3 13 78 35 168 47 184 62 273
61 338 -1 38 -6 26 -30 -75 -95 -394 -189 -723 -251 -879 -45 -115 -109 -246
-119 -246 -3 0 -18 17 -31 38 -35 53 -133 149 -221 220 -321 255 -825 422
-1270 422 -78 0 -161 -6 -202 -15 -38 -8 -75 -15 -81 -15 -7 0 3 56 26 148 21
81 64 253 95 382 149 609 284 874 549 1072 127 95 306 168 413 168 22 0 25 2
13 10 -8 5 -36 10 -62 10 -27 0 -48 3 -48 7 0 4 31 48 69 97 132 175 222 328
271 464 12 34 26 62 29 62 4 0 56 -37 116 -82z m-4305 -321 c0 -24 69 -153
123 -232 65 -93 214 -256 339 -369 164 -149 408 -322 661 -469 l128 -75 -51
-11 c-127 -27 -210 -108 -251 -243 -18 -57 -23 -66 -37 -59 -39 22 -299 257
-442 400 -281 282 -475 529 -522 665 -29 83 -22 209 19 358 8 32 19 55 24 52
5 -3 9 -11 9 -17z m3040 -1061 c0 -2 -6 -22 -14 -44 -33 -92 -89 -302 -140
-527 -71 -308 -103 -413 -128 -421 -10 -3 -45 -30 -77 -60 -91 -84 -122 -178
-102 -306 l11 -67 -34 -45 c-108 -142 -93 -312 40 -447 l55 -56 -124 -324
c-68 -178 -146 -382 -172 -454 -27 -71 -51 -133 -55 -138 -3 -4 -40 -16 -81
-28 -104 -28 -246 -99 -305 -152 -27 -25 -63 -69 -79 -99 -27 -47 -30 -62 -30
-138 0 -58 6 -100 18 -131 l18 -47 -38 -68 c-37 -67 -38 -72 -37 -164 1 -56 8
-115 17 -144 9 -27 14 -53 11 -57 -7 -12 -174 48 -268 96 -158 80 -293 198
-402 350 -175 245 -259 588 -233 956 19 281 70 484 269 1079 150 449 203 637
260 920 39 193 53 230 106 289 79 88 200 115 294 66 83 -43 156 -151 206 -307
l28 -86 60 23 c255 96 577 280 831 473 72 56 95 69 95 58z m258 -966 c249 -26
558 -115 787 -225 284 -137 505 -345 590 -554 47 -114 53 -267 13 -320 -29
-38 -73 -81 -84 -81 -6 0 -15 21 -19 48 -15 108 -172 358 -205 326 -8 -8 1
-25 35 -65 57 -67 91 -124 116 -196 72 -211 -10 -431 -182 -486 -53 -17 -123
-23 -117 -9 2 4 18 36 36 70 31 60 34 63 51 48 30 -28 32 -18 6 49 -95 255
-406 482 -800 585 -279 73 -546 76 -734 8 -69 -25 -69 -24 -105 -113 l-24 -60
-45 46 c-67 70 -92 129 -92 219 0 62 5 85 28 132 80 162 285 237 576 209 78
-7 128 -8 139 -2 15 8 15 10 2 15 -88 29 -320 35 -435 11 -38 -8 -102 -31
-143 -50 -61 -29 -74 -32 -79 -19 -11 30 4 159 24 205 47 106 177 188 333 212
53 9 235 7 328 -3z m78 -814 c301 -55 552 -166 732 -323 61 -53 132 -144 166
-210 l16 -32 -93 -168 c-52 -92 -145 -260 -207 -373 -62 -113 -170 -306 -241
-430 -70 -124 -141 -262 -157 -305 -16 -44 -49 -134 -72 -200 -78 -220 -178
-384 -310 -508 -174 -164 -362 -205 -552 -120 -51 23 -74 43 -49 43 12 0 121
73 121 81 0 4 -26 -4 -58 -17 -183 -74 -390 -73 -489 2 -32 24 -75 88 -88 132
-6 21 -4 22 50 22 71 0 133 15 165 41 20 17 21 19 5 13 -11 -4 -63 -9 -117
-12 -73 -3 -108 0 -147 13 -145 48 -251 211 -251 384 0 184 91 283 244 265 54
-7 55 -8 49 -33 -3 -14 -14 -47 -24 -73 -10 -27 -15 -48 -10 -48 15 0 52 57
63 97 13 47 26 223 16 223 -8 0 -38 -94 -38 -119 0 -13 -15 -16 -92 -16 -51 0
-105 -4 -119 -8 -25 -8 -28 -6 -40 30 -20 60 -16 170 8 223 47 103 177 192
378 259 49 16 93 35 97 43 5 7 89 225 187 483 98 259 191 500 206 536 l26 66
75 23 c41 12 96 26 122 30 67 13 332 4 428 -14z m-1818 -2095 c32 -16 103 -43
159 -61 89 -27 105 -35 123 -64 20 -34 93 -105 144 -141 l28 -20 -56 -34
c-260 -156 -679 -137 -873 42 -59 54 -83 103 -83 169 0 102 -11 95 173 96 130
0 177 4 237 20 41 11 79 20 83 21 4 1 33 -12 65 -28z"/>
<path d="M3048 9539 c-22 -13 -24 -62 -2 -83 22 -22 50 -20 74 6 25 27 25 43
0 68 -22 22 -46 25 -72 9z"/>
<path d="M1668 11363 c6 -2 18 -2 25 0 6 3 1 5 -13 5 -14 0 -19 -2 -12 -5z"/>
<path d="M1518 11343 c7 -3 16 -2 19 1 4 3 -2 6 -13 5 -11 0 -14 -3 -6 -6z"/>
<path d="M232 10265 c0 -44 4 -91 8 -105 7 -20 8 -17 8 20 0 25 -4 72 -8 105
l-7 60 -1 -80z"/>
<path d="M254 9975 c0 -88 2 -123 3 -77 2 46 2 118 0 160 -1 42 -3 5 -3 -83z"/>
<path d="M4331 9824 c-22 -27 -27 -78 -12 -103 7 -10 11 -5 16 17 3 17 17 47
31 67 29 43 29 45 5 45 -11 0 -29 -12 -40 -26z"/>
<path d="M238 9765 c-4 -22 -7 -103 -6 -180 l1 -140 9 120 c4 66 7 147 6 180
-3 58 -3 59 -10 20z"/>
<path d="M2061 9546 c-9 -10 -11 -28 -7 -51 7 -34 9 -36 44 -33 30 2 38 8 46
31 7 19 7 34 0 45 -15 23 -67 27 -83 8z"/>
<path d="M224 9155 c0 -82 2 -115 3 -72 2 43 2 110 0 150 -1 40 -3 5 -3 -78z"/>
<path d="M3365 8925 c23 -18 22 -19 -55 -59 -165 -87 -428 -153 -704 -178
-105 -9 -163 -9 -261 0 -107 10 -271 42 -297 58 -4 3 18 29 49 59 31 30 54 57
51 60 -5 5 -100 -52 -163 -99 -19 -14 -18 -15 30 -36 66 -28 189 -57 299 -69
49 -6 93 -14 97 -18 29 -29 35 -296 9 -413 -6 -25 -12 -54 -15 -65 -4 -19 -13
-20 -142 -21 -114 -1 -155 -6 -236 -27 -96 -26 -223 -85 -282 -133 -34 -27
-39 -17 55 -132 79 -97 120 -164 165 -268 l34 -79 -69 -21 c-38 -12 -92 -36
-120 -54 -224 -144 -194 -465 56 -582 112 -52 258 -38 371 37 29 19 66 53 81
75 15 22 29 39 32 40 3 0 14 -16 25 -37 25 -46 106 -127 159 -158 51 -30 146
-55 207 -55 62 0 157 30 219 70 152 98 216 286 147 434 -15 32 -29 57 -31 55
-3 -2 2 -29 10 -59 46 -180 -34 -349 -206 -429 -48 -23 -68 -26 -155 -26 -90
0 -106 3 -160 29 -76 38 -140 104 -178 184 l-29 63 -34 -49 c-94 -141 -256
-201 -411 -154 -175 54 -264 223 -203 386 40 106 126 174 256 201 36 7 68 16
70 18 7 6 -38 121 -76 197 -36 72 -106 174 -160 234 l-34 38 29 25 c52 42 162
93 253 115 71 18 115 22 242 22 157 -1 223 -9 535 -69 228 -43 388 -31 504 38
79 47 179 161 233 264 95 184 116 308 66 393 -49 84 -179 189 -253 205 -29 6
-29 6 -10 -10z m35 -735 c0 -6 -27 -30 -61 -55 -77 -57 -166 -85 -267 -85
l-76 0 35 36 c45 47 88 73 157 95 62 20 212 26 212 9z"/>
<path d="M32 8285 c-1 -64 22 -182 41 -213 5 -7 9 -45 9 -85 0 -51 2 -64 8
-45 15 49 20 49 85 -7 36 -30 81 -63 102 -73 39 -20 93 -36 93 -28 0 3 -26 20
-57 40 -161 97 -252 235 -272 410 l-8 71 -1 -70z"/>
<path d="M292 7275 c0 -16 2 -22 5 -12 2 9 2 23 0 30 -3 6 -5 -1 -5 -18z"/>
<path d="M312 7160 c0 -14 2 -19 5 -12 2 6 2 18 0 25 -3 6 -5 1 -5 -13z"/>
<path d="M321 7106 c-1 -31 31 -174 36 -160 2 5 -5 50 -16 99 -10 50 -19 77
-20 61z"/>
<path d="M365 6900 c9 -65 34 -174 70 -305 19 -71 44 -161 54 -200 72 -264
231 -644 402 -960 23 -44 45 -100 49 -125 l6 -45 27 80 c50 150 68 244 74 385
2 74 1 153 -4 175 -8 35 -10 24 -17 -80 -11 -175 -60 -440 -81 -440 -25 0
-201 348 -288 571 -94 238 -161 452 -248 789 -27 105 -47 174 -44 155z"/>
<path d="M2337 5589 c-9 -5 -23 -22 -31 -37 -19 -38 0 -84 43 -102 87 -36 139
81 58 130 -36 22 -45 24 -70 9z m73 -44 c10 -12 10 -21 2 -40 -15 -32 -67 -36
-77 -5 -15 46 45 82 75 45z"/>
<path d="M2036 4589 c-38 -30 -36 -79 5 -113 45 -39 86 -31 113 22 17 33 8 61
-30 91 -34 26 -54 27 -88 0z m88 -35 c9 -24 8 -31 -10 -48 -25 -25 -63 -20
-70 9 -4 15 -1 32 6 40 17 20 66 19 74 -1z"/>
<path d="M392 3885 c0 -16 2 -22 5 -12 2 9 2 23 0 30 -3 6 -5 -1 -5 -18z"/>
<path d="M1785 3545 c-38 -37 -30 -97 16 -120 39 -21 56 -19 84 10 40 40 30
96 -22 123 -32 18 -51 15 -78 -13z m85 -35 c16 -30 -4 -60 -40 -60 -33 0 -47
27 -30 60 14 26 56 26 70 0z"/>
<path d="M2006 2524 c-43 -42 0 -134 63 -134 34 0 71 39 71 75 0 12 -9 34 -21
49 -16 20 -29 26 -59 26 -22 0 -45 -7 -54 -16z m94 -29 c15 -18 4 -52 -21 -65
-25 -14 -59 4 -59 30 0 41 55 66 80 35z"/>
</g>
</svg>
